<svg t="1690711709689" class="icon" viewBox="0 0 1024 1024" version="1.1" xmlns="http://www.w3.org/2000/svg" p-id="5212" width="200" height="200"><path d="M479.984 157.808c-0.384 0-0.768-0.008-1.16-0.04l-11.968-0.856a16.008 16.008 0 0 1-14.824-17.104 16.04 16.04 0 0 1 17.104-14.816l11.968 0.856a16 16 0 1 1-1.12 31.96zM747.464 176.912c-0.384 0-0.768-0.008-1.16-0.04l-22.288-1.592a16.008 16.008 0 0 1 2.28-31.92l22.288 1.592a16.008 16.008 0 0 1-1.12 31.96z m-66.872-4.776c-0.384 0-0.768-0.008-1.16-0.04l-22.288-1.592a16.008 16.008 0 0 1 2.28-31.92l22.288 1.592a16.008 16.008 0 0 1-1.12 31.96z m-66.864-4.776c-0.384 0-0.768-0.008-1.16-0.04l-22.296-1.592a16.008 16.008 0 0 1 2.28-31.928l22.296 1.592a16.008 16.008 0 0 1-1.12 31.968z m-66.88-4.776c-0.384 0-0.768-0.008-1.16-0.04l-22.288-1.592a16.008 16.008 0 0 1 2.28-31.928l22.288 1.592a16.008 16.008 0 0 1-1.12 31.968zM804.016 180.952c-0.384 0-0.768-0.008-1.16-0.04l-11.968-0.856a16.008 16.008 0 0 1 2.28-31.928l11.968 0.856a16 16 0 0 1-1.12 31.968zM234.216 348.384a16 16 0 0 1-12.928-25.408l7.056-9.704a16 16 0 1 1 25.88 18.816l-7.056 9.704c-3.128 4.312-8 6.592-12.952 6.592zM268.192 301.672a16 16 0 0 1-12.928-25.408l13.456-18.504a16 16 0 0 1 25.88 18.824l-13.456 18.504a15.968 15.968 0 0 1-12.952 6.584z m40.368-55.504a16 16 0 0 1-12.928-25.408l13.456-18.504a16 16 0 0 1 25.88 18.824l-13.456 18.504a16 16 0 0 1-12.952 6.584zM348.928 190.656A16 16 0 0 1 336 165.248l7.056-9.704a16.008 16.008 0 0 1 25.88 18.824l-7.056 9.704a15.968 15.968 0 0 1-12.952 6.584zM127.96 795.52a23.952 23.952 0 0 1-14.696-5.024c-2.32-1.792-23-18.352-36.408-47.528-13.792-30.016-15.52-54.528-15.664-57.224a24 24 0 0 1 14.224-23.28l70.848-31.456a24 24 0 0 1 19.48 43.864l-53.776 23.872c1.688 6.728 4.36 15.12 8.512 24.168a89.904 89.904 0 0 0 12.712 19.944l53.04-23.792a24 24 0 1 1 19.64 43.8l-68.096 30.544a23.728 23.728 0 0 1-9.816 2.112zM323.976 964.952a24 24 0 0 1-20.368-36.664l144-232a24 24 0 1 1 40.784 25.312l-144 232a23.968 23.968 0 0 1-20.416 11.352zM716.024 964.952a23.976 23.976 0 0 1-20.072-10.816l-152.632-232a24 24 0 1 1 40.088-26.384l152.632 232.008a24 24 0 0 1-20.016 37.192z" p-id="5213" fill="#005bc1"></path><path d="M516 996.952a24 24 0 0 1-24-24v-256a24 24 0 1 1 48 0v256a24 24 0 0 1-24 24zM155.968 666.072a24.008 24.008 0 0 1-23.816-21.272l-3.136-27.36a24 24 0 0 1 13.376-24.328L654.72 344.72a24 24 0 1 1 20.936 43.192L178.648 628.88l1.2 10.456a24 24 0 0 1-23.88 26.736zM220.008 792.904a24 24 0 0 1-18.224-8.376l-23.952-27.928a24 24 0 0 1 36.432-31.248l11.952 13.936L417.6 647.32a24 24 0 1 1 20.784 43.264l-208 99.952c-3.312 1.6-6.864 2.368-10.376 2.368zM580.016 620.952a24 24 0 0 1-10.752-45.472l160-80a24 24 0 1 1 21.464 42.928l-160 80c-3.44 1.728-7.104 2.544-10.712 2.544z" p-id="5214" fill="#005bc1"></path><path d="M516 732.952c-48.52 0-88-39.48-88-88s39.48-88 88-88 88 39.48 88 88-39.48 88-88 88z m0-144c-30.872 0-56 25.12-56 56s25.128 56 56 56 56-25.12 56-56-25.128-56-56-56z" p-id="5215" fill="#005bc1"></path><path d="M516 740.952c-54.408 0-97.224-35.688-104.12-86.792l47.568-6.416c4.504 33.368 33.272 45.208 56.544 45.208 26.584 0 51.208-23.088 51.664-48.432 0.296-16.184-2.112-28.576-15.264-44l36.528-31.144c19.288 22.624 27.28 45.352 26.736 76-0.928 51.808-46.568 95.576-99.656 95.576zM770.184 555.04l-3.344-5.672c-10.08-10.592-50.512-54.832-78.416-110.624-23.944-47.888-40.168-120.192-40.328-120.92L648 316.952v-4.944l95.576-46.96 3.528 7.184-91.008 44.712c1.896 8.28 17.384 74.024 39.48 118.216 28.192 56.392 69.4 100.728 77.752 109.416l86.664-42.584 3.528 7.176-93.336 45.872z" p-id="5216" fill="#005bc1"></path><path d="M664.304 387.416a24 24 0 0 1-23.552-19.52l-9.304-48.904a24 24 0 0 1 12.992-26.024l93.336-45.864a24.008 24.008 0 0 1 21.176 43.08l-76.928 37.8 5.888 30.944a24 24 0 0 1-23.608 28.488zM776.896 572.768a23.936 23.936 0 0 1-15.872-6l-24.496-21.592a24 24 0 0 1 31.728-36.008l12.456 10.976 73.48-36.104a24.008 24.008 0 0 1 21.176 43.08l-87.888 43.184a23.944 23.944 0 0 1-10.584 2.464z" p-id="5217" fill="#005bc1"></path><path d="M866.504 540.952c-0.008 0-0.008 0 0 0-39.816-0.016-94.288-107.072-104.808-128.528-16.928-34.544-69.064-148.792-29.072-168.392a23.6 23.6 0 0 1 10.472-2.384c39.808 0 94.288 107.072 104.808 128.536 17.88 36.488 31.664 72.464 38.8 101.296 5.912 23.864 11.328 56.776-9.736 67.096a23.688 23.688 0 0 1-10.464 2.376zM749.608 278.688c1.312 18.768 12.288 61.432 40.824 119.656 28.528 58.216 55.52 93.024 69.544 105.56-1.304-18.76-12.28-61.424-40.816-119.648-28.528-58.216-55.52-93.032-69.552-105.568z" p-id="5218" fill="#005bc1"></path><path d="M869.936 548.2a24 24 0 0 1-17.856-40.064c0.616-13.744-9.528-57.976-40.104-120.36-30.568-62.384-59.312-97.512-70.552-105.44a24.016 24.016 0 0 1-12.32-45.496c43.88-21.448 97.72 72.144 125.984 129.808 18.128 36.984 32.112 73.528 39.376 102.888 4.192 16.92 15.32 61.848-13.976 76.2-3.4 1.68-7 2.464-10.552 2.464zM765.008 548.952c-4.808 0-9.56-2.16-12.72-6.28-1.112-1.464-27.696-36.4-59.808-94.784-28.664-52.12-38.664-95.12-39.08-96.928a16 16 0 0 1 31.192-7.136c0.096 0.4 9.552 40.688 35.92 88.632 30.96 56.296 56.928 90.424 57.192 90.76a16 16 0 0 1-12.696 25.736zM220.008 767.616a15.968 15.968 0 0 1-12-5.408l-5.384-6.064c-15.744-17.664-18.44-21.256-36.192-55.896-17.344-33.848-19.632-63.576-19.72-64.832a16 16 0 0 1 31.92-2.32c0.024 0.288 2.08 24.832 16.28 52.56 16.568 32.336 17.992 33.928 31.6 49.2l5.488 6.176a16 16 0 0 1-11.992 26.584zM266.984 468.952c-2.544 0-5.104-0.608-7.448-1.832l-44.112-23.192-44.112 23.184a15.992 15.992 0 0 1-23.216-16.864l8.416-49.12-35.68-34.792a16 16 0 0 1 8.864-27.288l49.32-7.168 22.056-44.696a16 16 0 0 1 28.688 0l22.056 44.696 49.32 7.168a15.992 15.992 0 0 1 8.864 27.288l-35.696 34.792 8.424 49.112a16.016 16.016 0 0 1-15.744 18.712zM166.376 366.056l18.496 18.032c3.768 3.672 5.496 8.976 4.6 14.16l-4.36 25.456 22.864-12.016a15.984 15.984 0 0 1 14.888 0l22.864 12.016-4.368-25.448a16.024 16.024 0 0 1 4.6-14.168l18.496-18.032-25.56-3.712a15.992 15.992 0 0 1-12.048-8.752l-11.432-23.168-11.432 23.168c-2.328 4.72-6.832 8-12.048 8.752l-25.56 3.712zM345.176 196.952a16 16 0 0 1-15.768-18.704l5.12-29.848-21.688-21.144a16 16 0 0 1 8.864-27.288l29.976-4.352 13.4-27.16a16 16 0 0 1 28.688 0l13.408 27.16 29.976 4.352a15.992 15.992 0 0 1 8.864 27.288L424.32 148.4l5.12 29.848a16.016 16.016 0 0 1-23.208 16.872l-26.808-14.096-26.808 14.088c-2.336 1.232-4.896 1.84-7.44 1.84z m13.208-69.984l4.496 4.384c3.768 3.672 5.496 8.976 4.6 14.16l-1.064 6.184 5.56-2.92a15.984 15.984 0 0 1 14.888 0l5.56 2.92-1.064-6.176a16.024 16.024 0 0 1 4.6-14.168l4.496-4.384-6.208-0.904a15.992 15.992 0 0 1-12.048-8.752l-2.784-5.632-2.776 5.632a16 16 0 0 1-12.048 8.752l-6.208 0.904zM811.904 244.952a16.024 16.024 0 0 1-15.776-18.704l6.76-39.384-28.624-27.896a16 16 0 0 1 8.872-27.288l39.544-5.744 17.68-35.832a16 16 0 0 1 28.696 0l17.696 35.84 39.536 5.744a15.992 15.992 0 0 1 8.872 27.288l-28.616 27.896 6.76 39.384c1.024 6-1.44 12.072-6.368 15.656a15.976 15.976 0 0 1-16.848 1.216l-35.376-18.6-35.368 18.592a16.008 16.008 0 0 1-7.44 1.832z m7.92-86.272l11.432 11.136a16 16 0 0 1 4.6 14.16l-2.696 15.72 14.12-7.424a15.984 15.984 0 0 1 14.888 0l14.128 7.424-2.704-15.72a16.048 16.048 0 0 1 4.6-14.168l11.432-11.136-15.784-2.296a15.976 15.976 0 0 1-12.048-8.752l-7.072-14.312-7.056 14.304c-2.336 4.728-6.84 8-12.056 8.752l-15.784 2.312z" p-id="5219" fill="#005bc1"></path></svg>