<svg t="1690712902979" class="icon" viewBox="0 0 1024 1024" version="1.1" xmlns="http://www.w3.org/2000/svg" p-id="6544" width="200" height="200"><path d="M894.74 121.91c0-15.12-10.5-27.79-24.6-31.13a31.807 31.807 0 0 0-15.31-0.11L311.31 220.39c-14.82 3.54-24.74 16.86-24.57 31.48v431.47c-19.87-11.99-43.14-18.9-68-18.9-72.79 0-132 59.21-132 132s59.21 132 132 132 132-59.21 132-132V448.88l480-114.57v229.03c-19.87-11.99-43.14-18.9-68-18.9-72.79 0-132 59.21-132 132s59.21 132 132 132 132-59.21 132-132V121.91z m-544 154.87l480-114.57v106.3l-480 114.57v-106.3z m-132 587.66c-37.5 0-68-30.5-68-68s30.5-68 68-68 68 30.5 68 68-30.5 68-68 68z m544-120c-37.5 0-68-30.5-68-68s30.5-68 68-68 68 30.5 68 68-30.5 68-68 68z" p-id="6545" fill="#005bc1"></path></svg>